<svg width="101" height="50" viewBox="0 0 101 50" fill="none" xmlns="http://www.w3.org/2000/svg">
<path d="M0 11.1794C0 13.2565 1.68387 14.9404 3.76092 14.9404H16.95C19.1433 14.9404 20.9214 16.7184 20.9214 18.9118V32.1008C20.9214 34.1778 22.6052 35.8617 24.6823 35.8617C26.7593 35.8617 28.4432 34.1778 28.4432 32.1008V11.3939C28.4432 9.20055 26.6651 7.42249 24.4718 7.42249H3.76489C1.68387 7.42249 0 9.10239 0 11.1794Z" fill="url(#paint0_linear_212_905)"/>
<path d="M21.6402 3.75695C21.6402 5.83399 23.324 7.51787 25.4011 7.51787H36.6044C39.8944 7.51787 42.5615 10.185 42.5615 13.475V24.6783C42.5615 26.7554 44.2454 28.4392 46.3224 28.4392C48.3995 28.4392 50.0834 26.7554 50.0834 24.6783V5.95711C50.0834 2.66709 47.4163 0 44.1263 0H25.4051C23.324 0 21.6402 1.6799 21.6402 3.75695Z" fill="url(#paint1_linear_212_905)"/>
<path d="M14.1104 20.9849C14.1104 23.0619 15.7943 24.7458 17.8713 24.7458H28.6775C32.1869 24.7458 35.0318 27.5907 35.0318 31.1V41.9062C35.0318 43.9833 36.7156 45.6671 38.7927 45.6671C40.8697 45.6671 42.5536 43.9833 42.5536 41.9062V23.5822C42.5536 20.0728 39.7087 17.2279 36.1994 17.2279H17.8753C15.7943 17.2279 14.1104 18.9118 14.1104 20.9849Z" fill="url(#paint2_linear_212_905)"/>
<path d="M28.4392 17.2279H20.9214V24.7458H28.4392V17.2279Z" fill="url(#paint3_linear_212_905)"/>
<path d="M13.6815 36.7435C11.2907 36.7435 9.35666 34.8054 9.35666 32.4186C9.35666 30.0278 11.2947 28.0938 13.6815 28.0938C16.0723 28.0938 18.0064 30.0318 18.0064 32.4186C18.0064 34.8054 16.0723 36.7435 13.6815 36.7435Z" fill="url(#paint4_linear_212_905)"/>
<path d="M56.21 43.6187H61.8636V45.8904H53.2722V34.6174H56.21V43.6187ZM68.2359 34.4466C69.3745 34.4466 70.3538 34.6801 71.1736 35.1469C72.0049 35.6024 72.6425 36.2628 73.0866 37.1282C73.5307 37.9936 73.7528 39.0355 73.7528 40.2539C73.7528 41.4723 73.5307 42.5142 73.0866 43.3796C72.6425 44.245 72.0049 44.9111 71.1736 45.378C70.3538 45.8334 69.3745 46.0612 68.2359 46.0612C67.0972 46.0612 66.1122 45.8334 65.281 45.378C64.4497 44.9111 63.8121 44.245 63.368 43.3796C62.9239 42.5142 62.7019 41.4723 62.7019 40.2539C62.7019 39.0355 62.9239 37.9936 63.368 37.1282C63.8121 36.2628 64.4497 35.6024 65.281 35.1469C66.1122 34.6801 67.0972 34.4466 68.2359 34.4466ZM68.2359 36.7525C67.6893 36.7525 67.2281 36.8834 66.8524 37.1453C66.4766 37.4072 66.1919 37.8001 65.9983 38.3238C65.8048 38.8363 65.708 39.4796 65.708 40.2539C65.708 41.0168 65.8048 41.6602 65.9983 42.184C66.1919 42.7078 66.4766 43.1006 66.8524 43.3625C67.2281 43.6244 67.6893 43.7554 68.2359 43.7554C68.7824 43.7554 69.2379 43.6244 69.6023 43.3625C69.978 43.1006 70.2627 42.7078 70.4563 42.184C70.6499 41.6602 70.7466 41.0168 70.7466 40.2539C70.7466 39.4796 70.6499 38.8363 70.4563 38.3238C70.2627 37.8001 69.978 37.4072 69.6023 37.1453C69.2379 36.8834 68.7824 36.7525 68.2359 36.7525ZM80.4363 46.0612C79.4343 46.0612 78.5404 45.8391 77.7547 45.3951C76.9804 44.951 76.3769 44.2962 75.9442 43.4308C75.5115 42.5654 75.2952 41.5122 75.2952 40.271C75.2952 39.0526 75.5229 38.0107 75.9784 37.1453C76.4339 36.2799 77.0829 35.6138 77.9255 35.1469C78.7796 34.6801 79.7816 34.4466 80.9317 34.4466C82.207 34.4466 83.2375 34.6801 84.0232 35.1469C84.8089 35.6024 85.4181 36.3312 85.8508 37.3332L83.135 38.4092C82.987 37.8285 82.7251 37.4072 82.3493 37.1453C81.9736 36.8834 81.5067 36.7525 80.9487 36.7525C80.3908 36.7525 79.9125 36.8891 79.514 37.1624C79.1155 37.4243 78.8137 37.8171 78.6087 38.3409C78.4038 38.8533 78.3013 39.491 78.3013 40.2539C78.3013 41.051 78.4038 41.7171 78.6087 42.2523C78.8251 42.7875 79.1382 43.186 79.5482 43.4479C79.9695 43.6984 80.4876 43.8237 81.1025 43.8237C81.4327 43.8237 81.7344 43.7838 82.0077 43.7041C82.281 43.6244 82.5201 43.5105 82.7251 43.3625C82.93 43.2031 83.0895 43.0095 83.2033 42.7818C83.3172 42.5427 83.3741 42.2637 83.3741 41.9449V41.774H80.795V39.8098H85.8678V45.8904H83.8695L83.6474 43.2429L84.1257 43.6529C83.8865 44.4272 83.4538 45.025 82.8276 45.4463C82.2127 45.8562 81.4156 46.0612 80.4363 46.0612ZM93.1723 34.4466C94.311 34.4466 95.2902 34.6801 96.1101 35.1469C96.9413 35.6024 97.579 36.2628 98.0231 37.1282C98.4672 37.9936 98.6892 39.0355 98.6892 40.2539C98.6892 41.4723 98.4672 42.5142 98.0231 43.3796C97.579 44.245 96.9413 44.9111 96.1101 45.378C95.2902 45.8334 94.311 46.0612 93.1723 46.0612C92.0336 46.0612 91.0487 45.8334 90.2174 45.378C89.3862 44.9111 88.7485 44.245 88.3044 43.3796C87.8604 42.5142 87.6383 41.4723 87.6383 40.2539C87.6383 39.0355 87.8604 37.9936 88.3044 37.1282C88.7485 36.2628 89.3862 35.6024 90.2174 35.1469C91.0487 34.6801 92.0336 34.4466 93.1723 34.4466ZM93.1723 36.7525C92.6257 36.7525 92.1646 36.8834 91.7888 37.1453C91.413 37.4072 91.1284 37.8001 90.9348 38.3238C90.7412 38.8363 90.6444 39.4796 90.6444 40.2539C90.6444 41.0168 90.7412 41.6602 90.9348 42.184C91.1284 42.7078 91.413 43.1006 91.7888 43.3625C92.1646 43.6244 92.6257 43.7554 93.1723 43.7554C93.7189 43.7554 94.1743 43.6244 94.5387 43.3625C94.9145 43.1006 95.1992 42.7078 95.3927 42.184C95.5863 41.6602 95.6831 41.0168 95.6831 40.2539C95.6831 39.4796 95.5863 38.8363 95.3927 38.3238C95.1992 37.8001 94.9145 37.4072 94.5387 37.1453C94.1743 36.8834 93.7189 36.7525 93.1723 36.7525Z" fill="#577CFF"/>
<defs>
<linearGradient id="paint0_linear_212_905" x1="-0.000436854" y1="21.64" x2="28.4376" y2="21.64" gradientUnits="userSpaceOnUse">
<stop stop-color="#FCC500"/>
<stop offset="1" stop-color="#ED5F00"/>
</linearGradient>
<linearGradient id="paint1_linear_212_905" x1="21.641" y1="14.2177" x2="50.0789" y2="14.2177" gradientUnits="userSpaceOnUse">
<stop stop-color="#D259FF"/>
<stop offset="1" stop-color="#8900BD"/>
</linearGradient>
<linearGradient id="paint2_linear_212_905" x1="14.111" y1="31.4462" x2="42.549" y2="31.4462" gradientUnits="userSpaceOnUse">
<stop stop-color="#00FCDA"/>
<stop offset="1" stop-color="#0078BD"/>
</linearGradient>
<linearGradient id="paint3_linear_212_905" x1="-0.000370003" y1="20.9863" x2="28.4376" y2="20.9863" gradientUnits="userSpaceOnUse">
<stop offset="0.00467742" stop-color="#312EA6"/>
<stop offset="1" stop-color="#1D1B62"/>
</linearGradient>
<linearGradient id="paint4_linear_212_905" x1="53.3455" y1="-7.24789" x2="9.18136" y2="36.9163" gradientUnits="userSpaceOnUse">
<stop stop-color="#00E3C4"/>
<stop offset="1" stop-color="#00A687"/>
</linearGradient>
</defs>
</svg>
